<svg width="20" height="20" viewBox="0 0 20 20" fill="none" xmlns="http://www.w3.org/2000/svg">
<path d="M9.07491 1.22051C9.41648 0.399154 10.58 0.399153 10.9216 1.22051L12.9373 6.06753C13.0813 6.41379 13.4069 6.65038 13.7807 6.68035L19.013 7.09988C19.8996 7.17097 20.2591 8.2774 19.5836 8.85609L15.597 12.2715C15.3122 12.5155 15.1879 12.8982 15.2749 13.263L16.4928 18.3696C16.6992 19.2349 15.7579 19.9187 14.9988 19.455L10.5195 16.7187C10.1995 16.5231 9.79699 16.5231 9.47694 16.7187L4.99766 19.455C4.23857 19.9187 3.29727 19.2349 3.50363 18.3696L4.72158 13.263C4.80857 12.8982 4.68422 12.5155 4.39948 12.2715L0.412818 8.85609C-0.26265 8.2774 0.0968884 7.17097 0.983504 7.09988L6.21579 6.68035C6.58959 6.65038 6.91521 6.41379 7.05921 6.06753L9.07491 1.22051Z" fill="#E04537"/>
</svg>
