<svg width="44" height="44" viewBox="0 0 44 44" fill="none" xmlns="http://www.w3.org/2000/svg">
<path fill-rule="evenodd" clip-rule="evenodd" d="M28 17H10V29H28V17ZM12.3707 18.5282C12.1102 18.3235 11.733 18.3687 11.5283 18.6293C11.3235 18.8899 11.3688 19.2671 11.6294 19.4718L16.0395 22.9369L11.6212 26.5347C11.3642 26.744 11.3256 27.1219 11.5348 27.3788C11.744 27.6358 12.1219 27.6745 12.3789 27.4653L17.0067 23.6969L19.0141 25.2741L20.8502 23.7204L25.1045 27.4511C25.3536 27.6696 25.7327 27.6447 25.9512 27.3956C26.1696 27.1464 26.1448 26.7674 25.8956 26.5489L21.7765 22.9367L25.8876 19.458C26.1406 19.244 26.1721 18.8654 25.9581 18.6124C25.744 18.3595 25.3654 18.3279 25.1125 18.542L18.986 23.7259L12.3707 18.5282Z" fill="#737373"/>
<rect x="14" y="10" width="27" height="14" rx="7" fill="#4DA44E"/>
<path d="M21.695 13C19.792 13 19 14.111 19 15.728C19 17.213 19.858 18.082 21.233 18.082C21.97 18.082 22.564 17.829 22.916 17.631C22.872 19.314 22.047 19.314 21.123 19.314C20.661 19.314 19.847 19.072 19.561 18.929L19.341 20.392C19.704 20.601 20.485 20.898 21.233 20.898C23.114 20.898 24.918 20.37 24.918 16.982V16.443C24.918 14.276 23.763 13 21.695 13ZM21.772 14.397C22.564 14.397 22.905 15.079 22.905 16.168V16.311C22.729 16.553 22.256 16.751 21.915 16.751C21.332 16.751 20.903 16.377 20.903 15.574C20.903 14.793 21.178 14.397 21.772 14.397Z" fill="white"/>
<path d="M28.3444 13C26.4414 13 25.6494 14.111 25.6494 15.728C25.6494 17.213 26.5074 18.082 27.8824 18.082C28.6194 18.082 29.2134 17.829 29.5654 17.631C29.5214 19.314 28.6964 19.314 27.7724 19.314C27.3104 19.314 26.4964 19.072 26.2104 18.929L25.9904 20.392C26.3534 20.601 27.1344 20.898 27.8824 20.898C29.7634 20.898 31.5674 20.37 31.5674 16.982V16.443C31.5674 14.276 30.4124 13 28.3444 13ZM28.4214 14.397C29.2134 14.397 29.5544 15.079 29.5544 16.168V16.311C29.3784 16.553 28.9054 16.751 28.5644 16.751C27.9814 16.751 27.5524 16.377 27.5524 15.574C27.5524 14.793 27.8274 14.397 28.4214 14.397Z" fill="white"/>
<path d="M34.0575 19.699H35.6415V17.895H37.3135V16.443H35.6415V14.639H34.0575V16.443H32.3855V17.895H34.0575V19.699Z" fill="white"/>
</svg>
