<svg width="44" height="44" viewBox="0 0 44 44" fill="none" xmlns="http://www.w3.org/2000/svg">
<path fill-rule="evenodd" clip-rule="evenodd" d="M22 15C21.4477 15 21 15.4477 21 16C21 16.0242 20.9811 16.0444 20.957 16.0467C18.6523 16.2699 17.5 17.3088 17.5 19.5V22.7597C17.5 22.9116 17.431 23.0552 17.3123 23.1501L15.1877 24.8499C15.069 24.9448 15 25.0884 15 25.2403V27.5C15 27.7761 15.2239 28 15.5 28H19.5C19.7761 28 19.9936 28.2273 20.0617 28.4949C20.282 29.3601 21.0663 30 22 30C22.9337 30 23.718 29.3601 23.9383 28.4949C24.0064 28.2273 24.2239 28 24.5 28H28.5C28.7761 28 29 27.7761 29 27.5V25.2403C29 25.0884 28.931 24.9448 28.8123 24.8499L26.6877 23.1501C26.569 23.0552 26.5 22.9116 26.5 22.7597V19.5C26.5 17.3088 25.3477 16.2699 23.043 16.0467C23.0189 16.0444 23 16.0242 23 16C23 15.4477 22.5523 15 22 15Z" fill="#737373"/>
</svg>
