<svg width="12" height="12" viewBox="0 0 12 12" fill="none" xmlns="http://www.w3.org/2000/svg">
<path fill-rule="evenodd" clip-rule="evenodd" d="M10.7803 8.77384C10.746 8.69328 10.749 8.60195 10.7861 8.52261C11.1516 7.73917 11.3567 6.8591 11.3567 5.929C11.3567 2.6545 8.81445 0 5.67837 0C2.54229 0 0 2.6545 0 5.929C0 9.20349 2.54229 11.858 5.67837 11.858C6.88848 11.858 8.01019 11.4628 8.93153 10.7892C9.02669 10.7196 9.15303 10.7073 9.25753 10.7619L11.5602 11.964C11.8099 12.0944 12.0854 11.8398 11.975 11.5806L10.7803 8.77384Z" fill="black"/>
<rect x="5.11035" y="2.96436" width="1.41874" height="3.95266" fill="white"/>
<rect x="5.11035" y="7.90527" width="1.41874" height="1.48225" fill="white"/>
</svg>
