<svg width="44" height="44" viewBox="0 0 44 44" fill="none" xmlns="http://www.w3.org/2000/svg">
<circle cx="22.5" cy="22.5" r="12" stroke="#E5E5E5"/>
<path fill-rule="evenodd" clip-rule="evenodd" d="M24.8317 23.5438C24.5546 23.3699 24.5172 22.9795 24.7114 22.7161C25.2372 22.0028 25.5585 21.0485 25.5585 20C25.5585 17.7909 24.132 16 22.3723 16C20.6127 16 19.1862 17.7909 19.1862 20C19.1862 21.0485 19.5075 22.0028 20.0333 22.7161C20.2274 22.9795 20.19 23.3699 19.9129 23.5438L16.2342 25.853C16.0885 25.9445 16 26.1044 16 26.2765V28C16 28.2761 16.2239 28.5 16.5 28.5H22.3723H28.2447C28.5208 28.5 28.7447 28.2761 28.7447 28V26.2765C28.7447 26.1044 28.6562 25.9445 28.5105 25.853L24.8317 23.5438Z" fill="#E5E5E5"/>
</svg>
