<svg width="112" height="20" viewBox="0 0 112 20" fill="none" xmlns="http://www.w3.org/2000/svg">
<path fill-rule="evenodd" clip-rule="evenodd" d="M9.93799 16.572C10.1181 16.5723 10.2981 16.6212 10.4576 16.7187L14.9369 19.455C15.696 19.9187 16.6373 19.2349 16.4309 18.3696L15.213 13.263C15.126 12.8983 15.2503 12.5155 15.5351 12.2716L19.5217 8.85609C20.1972 8.2774 19.8377 7.17096 18.951 7.09988L13.7188 6.68035C13.345 6.65037 13.0193 6.41379 12.8753 6.06753L10.8596 1.22051C10.6891 0.810443 10.3137 0.605105 9.93799 0.604492V16.572Z" fill="#E04537"/>
<path fill-rule="evenodd" clip-rule="evenodd" d="M9.93793 0.604494C9.56109 0.603879 9.18394 0.809217 9.0129 1.22051L6.99719 6.06753C6.8532 6.41379 6.52758 6.65038 6.15378 6.68035L0.921492 7.09988C0.0348769 7.17097 -0.324661 8.2774 0.350806 8.85609L4.33746 12.2716C4.62221 12.5155 4.74656 12.8983 4.65957 13.263L3.44162 18.3696C3.23526 19.2349 4.17656 19.9187 4.93564 19.455L9.41493 16.7187C9.57545 16.6206 9.75672 16.5717 9.93793 16.572V0.604494Z" fill="#E04537"/>
<path fill-rule="evenodd" clip-rule="evenodd" d="M32.938 16.572C33.1181 16.5723 33.2981 16.6212 33.4576 16.7187L37.9369 19.455C38.696 19.9187 39.6373 19.2349 39.4309 18.3696L38.213 13.263C38.126 12.8983 38.2503 12.5155 38.5351 12.2716L42.5217 8.85609C43.1972 8.2774 42.8377 7.17096 41.951 7.09988L36.7188 6.68035C36.345 6.65037 36.0193 6.41379 35.8753 6.06753L33.8596 1.22051C33.6891 0.810443 33.3137 0.605105 32.938 0.604492V16.572Z" fill="#E04537"/>
<path fill-rule="evenodd" clip-rule="evenodd" d="M55.938 16.572C56.1181 16.5723 56.2981 16.6212 56.4576 16.7187L60.9369 19.455C61.696 19.9187 62.6373 19.2349 62.4309 18.3696L61.213 13.263C61.126 12.8983 61.2503 12.5155 61.5351 12.2716L65.5217 8.85609C66.1972 8.2774 65.8377 7.17096 64.951 7.09988L59.7188 6.68035C59.345 6.65037 59.0193 6.41379 58.8753 6.06753L56.8596 1.22051C56.6891 0.810443 56.3137 0.605105 55.938 0.604492V16.572Z" fill="#E04537"/>
<path fill-rule="evenodd" clip-rule="evenodd" d="M78.938 16.572C79.1181 16.5723 79.2981 16.6212 79.4576 16.7187L83.9369 19.455C84.696 19.9187 85.6373 19.2349 85.4309 18.3696L84.213 13.263C84.126 12.8983 84.2503 12.5155 84.5351 12.2716L88.5217 8.85609C89.1972 8.2774 88.8377 7.17096 87.951 7.09988L82.7188 6.68035C82.345 6.65037 82.0193 6.41379 81.8753 6.06753L79.8596 1.22051C79.6891 0.810443 79.3137 0.605105 78.938 0.604492V16.572Z" fill="#E04537"/>
<path fill-rule="evenodd" clip-rule="evenodd" d="M101.938 16.572C102.118 16.5723 102.298 16.6212 102.458 16.7187L106.937 19.455C107.696 19.9187 108.637 19.2349 108.431 18.3696L107.213 13.263C107.126 12.8983 107.25 12.5155 107.535 12.2716L111.522 8.85609C112.197 8.2774 111.838 7.17096 110.951 7.09988L105.719 6.68035C105.345 6.65037 105.019 6.41379 104.875 6.06753L102.86 1.22051C102.689 0.810443 102.314 0.605105 101.938 0.604492V16.572Z" fill="#E04537"/>
<path fill-rule="evenodd" clip-rule="evenodd" d="M32.9379 0.604494C32.5611 0.603879 32.1839 0.809217 32.0129 1.22051L29.9972 6.06753C29.8532 6.41379 29.5276 6.65038 29.1538 6.68035L23.9215 7.09988C23.0349 7.17097 22.6753 8.2774 23.3508 8.85609L27.3375 12.2716C27.6222 12.5155 27.7466 12.8983 27.6596 13.263L26.4416 18.3696C26.2353 19.2349 27.1766 19.9187 27.9356 19.455L32.4149 16.7187C32.5755 16.6206 32.7567 16.5717 32.9379 16.572V0.604494Z" fill="#E04537"/>
<path fill-rule="evenodd" clip-rule="evenodd" d="M55.9379 0.604494C55.5611 0.603879 55.1839 0.809217 55.0129 1.22051L52.9972 6.06753C52.8532 6.41379 52.5276 6.65038 52.1538 6.68035L46.9215 7.09988C46.0349 7.17097 45.6753 8.2774 46.3508 8.85609L50.3375 12.2716C50.6222 12.5155 50.7466 12.8983 50.6596 13.263L49.4416 18.3696C49.2353 19.2349 50.1766 19.9187 50.9356 19.455L55.4149 16.7187C55.5755 16.6206 55.7567 16.5717 55.9379 16.572V0.604494Z" fill="#E04537"/>
<path fill-rule="evenodd" clip-rule="evenodd" d="M78.9379 0.604494C78.5611 0.603879 78.1839 0.809217 78.0129 1.22051L75.9972 6.06753C75.8532 6.41379 75.5276 6.65038 75.1538 6.68035L69.9215 7.09988C69.0349 7.17097 68.6753 8.2774 69.3508 8.85609L73.3375 12.2716C73.6222 12.5155 73.7466 12.8983 73.6596 13.263L72.4416 18.3696C72.2353 19.2349 73.1766 19.9187 73.9356 19.455L78.4149 16.7187C78.5755 16.6206 78.7567 16.5717 78.9379 16.572V0.604494Z" fill="#E04537"/>
<path fill-rule="evenodd" clip-rule="evenodd" d="M101.938 0.604494C101.561 0.603879 101.184 0.809217 101.013 1.22051L98.9972 6.06753C98.8532 6.41379 98.5276 6.65038 98.1538 6.68035L92.9215 7.09988C92.0349 7.17097 91.6753 8.2774 92.3508 8.85609L96.3375 12.2716C96.6222 12.5155 96.7466 12.8983 96.6596 13.263L95.4416 18.3696C95.2353 19.2349 96.1766 19.9187 96.9356 19.455L101.415 16.7187C101.575 16.6206 101.757 16.5717 101.938 16.572V0.604494Z" fill="#E04537"/>
</svg>
