<svg width="112" height="20" viewBox="0 0 112 20" fill="none" xmlns="http://www.w3.org/2000/svg">
<path fill-rule="evenodd" clip-rule="evenodd" d="M9.93799 16.1316C10.1181 16.1319 10.2981 16.1808 10.4576 16.2782L14.9369 19.0146C15.696 19.4783 16.6373 18.7944 16.4309 17.9292L15.213 12.8225C15.126 12.4578 15.2503 12.0751 15.5351 11.8311L19.5217 8.41566C20.1972 7.83697 19.8377 6.73054 18.951 6.65945L13.7188 6.23992C13.345 6.20995 13.0193 5.97336 12.8753 5.6271L10.8596 0.780076C10.6891 0.370013 10.3137 0.164675 9.93799 0.164062V16.1316Z" fill="#DEDDE2"/>
<path fill-rule="evenodd" clip-rule="evenodd" d="M9.93793 0.164064C9.56109 0.163449 9.18394 0.368787 9.0129 0.780079L6.99719 5.6271C6.8532 5.97336 6.52758 6.20995 6.15378 6.23992L0.921492 6.65945C0.0348769 6.73054 -0.324661 7.83697 0.350806 8.41566L4.33746 11.8311C4.62221 12.0751 4.74656 12.4578 4.65957 12.8225L3.44162 17.9292C3.23526 18.7944 4.17656 19.4783 4.93564 19.0146L9.41493 16.2782C9.57545 16.1802 9.75672 16.1313 9.93793 16.1316V0.164064Z" fill="#E04537"/>
<path fill-rule="evenodd" clip-rule="evenodd" d="M32.938 16.1316C33.1181 16.1319 33.2981 16.1808 33.4576 16.2782L37.9369 19.0146C38.696 19.4783 39.6373 18.7944 39.4309 17.9292L38.213 12.8225C38.126 12.4578 38.2503 12.0751 38.5351 11.8311L42.5217 8.41566C43.1972 7.83697 42.8377 6.73054 41.951 6.65945L36.7188 6.23992C36.345 6.20995 36.0193 5.97336 35.8753 5.6271L33.8596 0.780076C33.6891 0.370013 33.3137 0.164675 32.938 0.164062V16.1316Z" fill="#DEDDE2"/>
<path fill-rule="evenodd" clip-rule="evenodd" d="M55.938 16.1316C56.1181 16.1319 56.2981 16.1808 56.4576 16.2782L60.9369 19.0146C61.696 19.4783 62.6373 18.7944 62.4309 17.9292L61.213 12.8225C61.126 12.4578 61.2503 12.0751 61.5351 11.8311L65.5217 8.41566C66.1972 7.83697 65.8377 6.73054 64.951 6.65945L59.7188 6.23992C59.345 6.20995 59.0193 5.97336 58.8753 5.6271L56.8596 0.780076C56.6891 0.370013 56.3137 0.164675 55.938 0.164062V16.1316Z" fill="#DEDDE2"/>
<path fill-rule="evenodd" clip-rule="evenodd" d="M78.938 16.1316C79.1181 16.1319 79.2981 16.1808 79.4576 16.2782L83.9369 19.0146C84.696 19.4783 85.6373 18.7944 85.4309 17.9292L84.213 12.8225C84.126 12.4578 84.2503 12.0751 84.5351 11.8311L88.5217 8.41566C89.1972 7.83697 88.8377 6.73054 87.951 6.65945L82.7188 6.23992C82.345 6.20995 82.0193 5.97336 81.8753 5.6271L79.8596 0.780076C79.6891 0.370013 79.3137 0.164675 78.938 0.164062V16.1316Z" fill="#DEDDE2"/>
<path fill-rule="evenodd" clip-rule="evenodd" d="M101.938 16.1316C102.118 16.1319 102.298 16.1808 102.458 16.2782L106.937 19.0146C107.696 19.4783 108.637 18.7944 108.431 17.9292L107.213 12.8225C107.126 12.4578 107.25 12.0751 107.535 11.8311L111.522 8.41566C112.197 7.83697 111.838 6.73054 110.951 6.65945L105.719 6.23992C105.345 6.20995 105.019 5.97336 104.875 5.6271L102.86 0.780076C102.689 0.370013 102.314 0.164675 101.938 0.164062V16.1316Z" fill="#DEDDE2"/>
<path fill-rule="evenodd" clip-rule="evenodd" d="M32.9379 0.164064C32.5611 0.163449 32.1839 0.368787 32.0129 0.780079L29.9972 5.6271C29.8532 5.97336 29.5276 6.20995 29.1538 6.23992L23.9215 6.65945C23.0349 6.73054 22.6753 7.83697 23.3508 8.41566L27.3375 11.8311C27.6222 12.0751 27.7466 12.4578 27.6596 12.8225L26.4416 17.9292C26.2353 18.7944 27.1766 19.4783 27.9356 19.0146L32.4149 16.2782C32.5755 16.1802 32.7567 16.1313 32.9379 16.1316V0.164064Z" fill="#DEDDE2"/>
<path fill-rule="evenodd" clip-rule="evenodd" d="M55.9379 0.164064C55.5611 0.163449 55.1839 0.368787 55.0129 0.780079L52.9972 5.6271C52.8532 5.97336 52.5276 6.20995 52.1538 6.23992L46.9215 6.65945C46.0349 6.73054 45.6753 7.83697 46.3508 8.41566L50.3375 11.8311C50.6222 12.0751 50.7466 12.4578 50.6596 12.8225L49.4416 17.9292C49.2353 18.7944 50.1766 19.4783 50.9356 19.0146L55.4149 16.2782C55.5755 16.1802 55.7567 16.1313 55.9379 16.1316V0.164064Z" fill="#DEDDE2"/>
<path fill-rule="evenodd" clip-rule="evenodd" d="M78.9379 0.164064C78.5611 0.163449 78.1839 0.368787 78.0129 0.780079L75.9972 5.6271C75.8532 5.97336 75.5276 6.20995 75.1538 6.23992L69.9215 6.65945C69.0349 6.73054 68.6753 7.83697 69.3508 8.41566L73.3375 11.8311C73.6222 12.0751 73.7466 12.4578 73.6596 12.8225L72.4416 17.9292C72.2353 18.7944 73.1766 19.4783 73.9356 19.0146L78.4149 16.2782C78.5755 16.1802 78.7567 16.1313 78.9379 16.1316V0.164064Z" fill="#DEDDE2"/>
<path fill-rule="evenodd" clip-rule="evenodd" d="M101.938 0.164064C101.561 0.163449 101.184 0.368787 101.013 0.780079L98.9972 5.6271C98.8532 5.97336 98.5276 6.20995 98.1538 6.23992L92.9215 6.65945C92.0349 6.73054 91.6753 7.83697 92.3508 8.41566L96.3375 11.8311C96.6222 12.0751 96.7466 12.4578 96.6596 12.8225L95.4416 17.9292C95.2353 18.7944 96.1766 19.4783 96.9356 19.0146L101.415 16.2782C101.575 16.1802 101.757 16.1313 101.938 16.1316V0.164064Z" fill="#DEDDE2"/>
</svg>
