<svg width="112" height="20" viewBox="0 0 112 20" fill="none" xmlns="http://www.w3.org/2000/svg">
<path fill-rule="evenodd" clip-rule="evenodd" d="M9.93799 16.7361C10.1181 16.7364 10.2981 16.7853 10.4576 16.8827L14.9369 19.6191C15.696 20.0828 16.6373 19.3989 16.4309 18.5337L15.213 13.427C15.126 13.0623 15.2503 12.6796 15.5351 12.4356L19.5217 9.02015C20.1972 8.44146 19.8377 7.33503 18.951 7.26394L13.7188 6.84441C13.345 6.81444 13.0193 6.57785 12.8753 6.23159L10.8596 1.38457C10.6891 0.974505 10.3137 0.769168 9.93799 0.768555V16.7361Z" fill="#E04537"/>
<path fill-rule="evenodd" clip-rule="evenodd" d="M9.93793 0.768556C9.56109 0.767941 9.18394 0.973279 9.0129 1.38457L6.99719 6.23159C6.8532 6.57785 6.52758 6.81444 6.15378 6.84441L0.921492 7.26394C0.0348769 7.33503 -0.324661 8.44146 0.350806 9.02015L4.33746 12.4356C4.62221 12.6796 4.74656 13.0623 4.65957 13.427L3.44162 18.5337C3.23526 19.3989 4.17656 20.0828 4.93564 19.6191L9.41493 16.8827C9.57545 16.7847 9.75672 16.7358 9.93793 16.7361V0.768556Z" fill="#E04537"/>
<path fill-rule="evenodd" clip-rule="evenodd" d="M32.938 16.7361C33.1181 16.7364 33.2981 16.7853 33.4576 16.8827L37.9369 19.6191C38.696 20.0828 39.6373 19.3989 39.4309 18.5337L38.213 13.427C38.126 13.0623 38.2503 12.6796 38.5351 12.4356L42.5217 9.02015C43.1972 8.44146 42.8377 7.33503 41.951 7.26394L36.7188 6.84441C36.345 6.81444 36.0193 6.57785 35.8753 6.23159L33.8596 1.38457C33.6891 0.974505 33.3137 0.769168 32.938 0.768555V16.7361Z" fill="#DEDDE2"/>
<path fill-rule="evenodd" clip-rule="evenodd" d="M55.938 16.7361C56.1181 16.7364 56.2981 16.7853 56.4576 16.8827L60.9369 19.6191C61.696 20.0828 62.6373 19.3989 62.4309 18.5337L61.213 13.427C61.126 13.0623 61.2503 12.6796 61.5351 12.4356L65.5217 9.02015C66.1972 8.44146 65.8377 7.33503 64.951 7.26394L59.7188 6.84441C59.345 6.81444 59.0193 6.57785 58.8753 6.23159L56.8596 1.38457C56.6891 0.974505 56.3137 0.769168 55.938 0.768555V16.7361Z" fill="#DEDDE2"/>
<path fill-rule="evenodd" clip-rule="evenodd" d="M78.938 16.7361C79.1181 16.7364 79.2981 16.7853 79.4576 16.8827L83.9369 19.6191C84.696 20.0828 85.6373 19.3989 85.4309 18.5337L84.213 13.427C84.126 13.0623 84.2503 12.6796 84.5351 12.4356L88.5217 9.02015C89.1972 8.44146 88.8377 7.33503 87.951 7.26394L82.7188 6.84441C82.345 6.81444 82.0193 6.57785 81.8753 6.23159L79.8596 1.38457C79.6891 0.974505 79.3137 0.769168 78.938 0.768555V16.7361Z" fill="#DEDDE2"/>
<path fill-rule="evenodd" clip-rule="evenodd" d="M101.938 16.7361C102.118 16.7364 102.298 16.7853 102.458 16.8827L106.937 19.6191C107.696 20.0828 108.637 19.3989 108.431 18.5337L107.213 13.427C107.126 13.0623 107.25 12.6796 107.535 12.4356L111.522 9.02015C112.197 8.44146 111.838 7.33503 110.951 7.26394L105.719 6.84441C105.345 6.81444 105.019 6.57785 104.875 6.23159L102.86 1.38457C102.689 0.974505 102.314 0.769168 101.938 0.768555V16.7361Z" fill="#DEDDE2"/>
<path fill-rule="evenodd" clip-rule="evenodd" d="M32.9379 0.768556C32.5611 0.767941 32.1839 0.973279 32.0129 1.38457L29.9972 6.23159C29.8532 6.57785 29.5276 6.81444 29.1538 6.84441L23.9215 7.26394C23.0349 7.33503 22.6753 8.44146 23.3508 9.02015L27.3375 12.4356C27.6222 12.6796 27.7466 13.0623 27.6596 13.427L26.4416 18.5337C26.2353 19.3989 27.1766 20.0828 27.9356 19.6191L32.4149 16.8827C32.5755 16.7847 32.7567 16.7358 32.9379 16.7361V0.768556Z" fill="#DEDDE2"/>
<path fill-rule="evenodd" clip-rule="evenodd" d="M55.9379 0.768556C55.5611 0.767941 55.1839 0.973279 55.0129 1.38457L52.9972 6.23159C52.8532 6.57785 52.5276 6.81444 52.1538 6.84441L46.9215 7.26394C46.0349 7.33503 45.6753 8.44146 46.3508 9.02015L50.3375 12.4356C50.6222 12.6796 50.7466 13.0623 50.6596 13.427L49.4416 18.5337C49.2353 19.3989 50.1766 20.0828 50.9356 19.6191L55.4149 16.8827C55.5755 16.7847 55.7567 16.7358 55.9379 16.7361V0.768556Z" fill="#DEDDE2"/>
<path fill-rule="evenodd" clip-rule="evenodd" d="M78.9379 0.768556C78.5611 0.767941 78.1839 0.973279 78.0129 1.38457L75.9972 6.23159C75.8532 6.57785 75.5276 6.81444 75.1538 6.84441L69.9215 7.26394C69.0349 7.33503 68.6753 8.44146 69.3508 9.02015L73.3375 12.4356C73.6222 12.6796 73.7466 13.0623 73.6596 13.427L72.4416 18.5337C72.2353 19.3989 73.1766 20.0828 73.9356 19.6191L78.4149 16.8827C78.5755 16.7847 78.7567 16.7358 78.9379 16.7361V0.768556Z" fill="#DEDDE2"/>
<path fill-rule="evenodd" clip-rule="evenodd" d="M101.938 0.768556C101.561 0.767941 101.184 0.973279 101.013 1.38457L98.9972 6.23159C98.8532 6.57785 98.5276 6.81444 98.1538 6.84441L92.9215 7.26394C92.0349 7.33503 91.6753 8.44146 92.3508 9.02015L96.3375 12.4356C96.6222 12.6796 96.7466 13.0623 96.6596 13.427L95.4416 18.5337C95.2353 19.3989 96.1766 20.0828 96.9356 19.6191L101.415 16.8827C101.575 16.7847 101.757 16.7358 101.938 16.7361V0.768556Z" fill="#DEDDE2"/>
</svg>
