<svg width="112" height="20" viewBox="0 0 112 20" fill="none" xmlns="http://www.w3.org/2000/svg">
<path fill-rule="evenodd" clip-rule="evenodd" d="M9.93799 16.3406C10.1181 16.3409 10.2981 16.3898 10.4576 16.4872L14.9369 19.2235C15.696 19.6873 16.6373 19.0034 16.4309 18.1382L15.213 13.0315C15.126 12.6668 15.2503 12.2841 15.5351 12.0401L19.5217 8.62464C20.1972 8.04595 19.8377 6.93952 18.951 6.86843L13.7188 6.4489C13.345 6.41893 13.0193 6.18234 12.8753 5.83608L10.8596 0.98906C10.6891 0.578998 10.3137 0.37366 9.93799 0.373047V16.3406Z" fill="#E04537"/>
<path fill-rule="evenodd" clip-rule="evenodd" d="M9.93793 0.373048C9.56109 0.372433 9.18394 0.577772 9.0129 0.989063L6.99719 5.83609C6.8532 6.18234 6.52758 6.41893 6.15378 6.4489L0.921492 6.86843C0.0348769 6.93952 -0.324661 8.04595 0.350806 8.62464L4.33746 12.0401C4.62221 12.2841 4.74656 12.6668 4.65957 13.0315L3.44162 18.1382C3.23526 19.0034 4.17656 19.6873 4.93564 19.2235L9.41493 16.4872C9.57545 16.3892 9.75672 16.3403 9.93793 16.3406V0.373048Z" fill="#E04537"/>
<path fill-rule="evenodd" clip-rule="evenodd" d="M32.938 16.3406C33.1181 16.3409 33.2981 16.3898 33.4576 16.4872L37.9369 19.2235C38.696 19.6873 39.6373 19.0034 39.4309 18.1382L38.213 13.0315C38.126 12.6668 38.2503 12.2841 38.5351 12.0401L42.5217 8.62464C43.1972 8.04595 42.8377 6.93952 41.951 6.86843L36.7188 6.4489C36.345 6.41893 36.0193 6.18234 35.8753 5.83608L33.8596 0.98906C33.6891 0.578998 33.3137 0.37366 32.938 0.373047V16.3406Z" fill="#DEDDE2"/>
<path fill-rule="evenodd" clip-rule="evenodd" d="M55.938 16.3406C56.1181 16.3409 56.2981 16.3898 56.4576 16.4872L60.9369 19.2235C61.696 19.6873 62.6373 19.0034 62.4309 18.1382L61.213 13.0315C61.126 12.6668 61.2503 12.2841 61.5351 12.0401L65.5217 8.62464C66.1972 8.04595 65.8377 6.93952 64.951 6.86843L59.7188 6.4489C59.345 6.41893 59.0193 6.18234 58.8753 5.83608L56.8596 0.98906C56.6891 0.578998 56.3137 0.37366 55.938 0.373047V16.3406Z" fill="#DEDDE2"/>
<path fill-rule="evenodd" clip-rule="evenodd" d="M78.938 16.3406C79.1181 16.3409 79.2981 16.3898 79.4576 16.4872L83.9369 19.2235C84.696 19.6873 85.6373 19.0034 85.4309 18.1382L84.213 13.0315C84.126 12.6668 84.2503 12.2841 84.5351 12.0401L88.5217 8.62464C89.1972 8.04595 88.8377 6.93952 87.951 6.86843L82.7188 6.4489C82.345 6.41893 82.0193 6.18234 81.8753 5.83608L79.8596 0.98906C79.6891 0.578998 79.3137 0.37366 78.938 0.373047V16.3406Z" fill="#DEDDE2"/>
<path fill-rule="evenodd" clip-rule="evenodd" d="M101.938 16.3406C102.118 16.3409 102.298 16.3898 102.458 16.4872L106.937 19.2235C107.696 19.6873 108.637 19.0034 108.431 18.1382L107.213 13.0315C107.126 12.6668 107.25 12.2841 107.535 12.0401L111.522 8.62464C112.197 8.04595 111.838 6.93952 110.951 6.86843L105.719 6.4489C105.345 6.41893 105.019 6.18234 104.875 5.83608L102.86 0.98906C102.689 0.578998 102.314 0.37366 101.938 0.373047V16.3406Z" fill="#DEDDE2"/>
<path fill-rule="evenodd" clip-rule="evenodd" d="M32.9379 0.373048C32.5611 0.372433 32.1839 0.577772 32.0129 0.989063L29.9972 5.83609C29.8532 6.18234 29.5276 6.41893 29.1538 6.4489L23.9215 6.86843C23.0349 6.93952 22.6753 8.04595 23.3508 8.62464L27.3375 12.0401C27.6222 12.2841 27.7466 12.6668 27.6596 13.0315L26.4416 18.1382C26.2353 19.0034 27.1766 19.6873 27.9356 19.2235L32.4149 16.4872C32.5755 16.3892 32.7567 16.3403 32.9379 16.3406V0.373048Z" fill="#E04537"/>
<path fill-rule="evenodd" clip-rule="evenodd" d="M55.9379 0.373048C55.5611 0.372433 55.1839 0.577772 55.0129 0.989063L52.9972 5.83609C52.8532 6.18234 52.5276 6.41893 52.1538 6.4489L46.9215 6.86843C46.0349 6.93952 45.6753 8.04595 46.3508 8.62464L50.3375 12.0401C50.6222 12.2841 50.7466 12.6668 50.6596 13.0315L49.4416 18.1382C49.2353 19.0034 50.1766 19.6873 50.9356 19.2235L55.4149 16.4872C55.5755 16.3892 55.7567 16.3403 55.9379 16.3406V0.373048Z" fill="#DEDDE2"/>
<path fill-rule="evenodd" clip-rule="evenodd" d="M78.9379 0.373048C78.5611 0.372433 78.1839 0.577772 78.0129 0.989063L75.9972 5.83609C75.8532 6.18234 75.5276 6.41893 75.1538 6.4489L69.9215 6.86843C69.0349 6.93952 68.6753 8.04595 69.3508 8.62464L73.3375 12.0401C73.6222 12.2841 73.7466 12.6668 73.6596 13.0315L72.4416 18.1382C72.2353 19.0034 73.1766 19.6873 73.9356 19.2235L78.4149 16.4872C78.5755 16.3892 78.7567 16.3403 78.9379 16.3406V0.373048Z" fill="#DEDDE2"/>
<path fill-rule="evenodd" clip-rule="evenodd" d="M101.938 0.373048C101.561 0.372433 101.184 0.577772 101.013 0.989063L98.9972 5.83609C98.8532 6.18234 98.5276 6.41893 98.1538 6.4489L92.9215 6.86843C92.0349 6.93952 91.6753 8.04595 92.3508 8.62464L96.3375 12.0401C96.6222 12.2841 96.7466 12.6668 96.6596 13.0315L95.4416 18.1382C95.2353 19.0034 96.1766 19.6873 96.9356 19.2235L101.415 16.4872C101.575 16.3892 101.757 16.3403 101.938 16.3406V0.373048Z" fill="#DEDDE2"/>
</svg>
