<svg width="112" height="20" viewBox="0 0 112 20" fill="none" xmlns="http://www.w3.org/2000/svg">
<path fill-rule="evenodd" clip-rule="evenodd" d="M9.93799 16.9451C10.1181 16.9454 10.2981 16.9943 10.4576 17.0917L14.9369 19.828C15.696 20.2918 16.6373 19.6079 16.4309 18.7427L15.213 13.636C15.126 13.2713 15.2503 12.8886 15.5351 12.6446L19.5217 9.22914C20.1972 8.65044 19.8377 7.54401 18.951 7.47292L13.7188 7.05339C13.345 7.02342 13.0193 6.78683 12.8753 6.44058L10.8596 1.59355C10.6891 1.18349 10.3137 0.978152 9.93799 0.977539V16.9451Z" fill="#E04537"/>
<path fill-rule="evenodd" clip-rule="evenodd" d="M9.93793 0.97754C9.56109 0.976926 9.18394 1.18226 9.0129 1.59356L6.99719 6.44058C6.8532 6.78683 6.52758 7.02342 6.15378 7.05339L0.921492 7.47292C0.0348769 7.54401 -0.324661 8.65045 0.350806 9.22914L4.33746 12.6446C4.62221 12.8886 4.74656 13.2713 4.65957 13.636L3.44162 18.7427C3.23526 19.6079 4.17656 20.2918 4.93564 19.828L9.41493 17.0917C9.57545 16.9937 9.75672 16.9448 9.93793 16.9451V0.97754Z" fill="#E04537"/>
<path fill-rule="evenodd" clip-rule="evenodd" d="M32.938 16.9451C33.1181 16.9454 33.2981 16.9943 33.4576 17.0917L37.9369 19.828C38.696 20.2918 39.6373 19.6079 39.4309 18.7427L38.213 13.636C38.126 13.2713 38.2503 12.8886 38.5351 12.6446L42.5217 9.22914C43.1972 8.65044 42.8377 7.54401 41.951 7.47292L36.7188 7.05339C36.345 7.02342 36.0193 6.78683 35.8753 6.44058L33.8596 1.59355C33.6891 1.18349 33.3137 0.978152 32.938 0.977539V16.9451Z" fill="#E04537"/>
<path fill-rule="evenodd" clip-rule="evenodd" d="M55.938 16.9451C56.1181 16.9454 56.2981 16.9943 56.4576 17.0917L60.9369 19.828C61.696 20.2918 62.6373 19.6079 62.4309 18.7427L61.213 13.636C61.126 13.2713 61.2503 12.8886 61.5351 12.6446L65.5217 9.22914C66.1972 8.65044 65.8377 7.54401 64.951 7.47292L59.7188 7.05339C59.345 7.02342 59.0193 6.78683 58.8753 6.44058L56.8596 1.59355C56.6891 1.18349 56.3137 0.978152 55.938 0.977539V16.9451Z" fill="#DEDDE2"/>
<path fill-rule="evenodd" clip-rule="evenodd" d="M78.938 16.9451C79.1181 16.9454 79.2981 16.9943 79.4576 17.0917L83.9369 19.828C84.696 20.2918 85.6373 19.6079 85.4309 18.7427L84.213 13.636C84.126 13.2713 84.2503 12.8886 84.5351 12.6446L88.5217 9.22914C89.1972 8.65044 88.8377 7.54401 87.951 7.47292L82.7188 7.05339C82.345 7.02342 82.0193 6.78683 81.8753 6.44058L79.8596 1.59355C79.6891 1.18349 79.3137 0.978152 78.938 0.977539V16.9451Z" fill="#DEDDE2"/>
<path fill-rule="evenodd" clip-rule="evenodd" d="M101.938 16.9451C102.118 16.9454 102.298 16.9943 102.458 17.0917L106.937 19.828C107.696 20.2918 108.637 19.6079 108.431 18.7427L107.213 13.636C107.126 13.2713 107.25 12.8886 107.535 12.6446L111.522 9.22914C112.197 8.65044 111.838 7.54401 110.951 7.47292L105.719 7.05339C105.345 7.02342 105.019 6.78683 104.875 6.44058L102.86 1.59355C102.689 1.18349 102.314 0.978152 101.938 0.977539V16.9451Z" fill="#DEDDE2"/>
<path fill-rule="evenodd" clip-rule="evenodd" d="M32.9379 0.97754C32.5611 0.976926 32.1839 1.18226 32.0129 1.59356L29.9972 6.44058C29.8532 6.78683 29.5276 7.02342 29.1538 7.05339L23.9215 7.47292C23.0349 7.54401 22.6753 8.65045 23.3508 9.22914L27.3375 12.6446C27.6222 12.8886 27.7466 13.2713 27.6596 13.636L26.4416 18.7427C26.2353 19.6079 27.1766 20.2918 27.9356 19.828L32.4149 17.0917C32.5755 16.9937 32.7567 16.9448 32.9379 16.9451V0.97754Z" fill="#E04537"/>
<path fill-rule="evenodd" clip-rule="evenodd" d="M55.9379 0.97754C55.5611 0.976926 55.1839 1.18226 55.0129 1.59356L52.9972 6.44058C52.8532 6.78683 52.5276 7.02342 52.1538 7.05339L46.9215 7.47292C46.0349 7.54401 45.6753 8.65045 46.3508 9.22914L50.3375 12.6446C50.6222 12.8886 50.7466 13.2713 50.6596 13.636L49.4416 18.7427C49.2353 19.6079 50.1766 20.2918 50.9356 19.828L55.4149 17.0917C55.5755 16.9937 55.7567 16.9448 55.9379 16.9451V0.97754Z" fill="#DEDDE2"/>
<path fill-rule="evenodd" clip-rule="evenodd" d="M78.9379 0.97754C78.5611 0.976926 78.1839 1.18226 78.0129 1.59356L75.9972 6.44058C75.8532 6.78683 75.5276 7.02342 75.1538 7.05339L69.9215 7.47292C69.0349 7.54401 68.6753 8.65045 69.3508 9.22914L73.3375 12.6446C73.6222 12.8886 73.7466 13.2713 73.6596 13.636L72.4416 18.7427C72.2353 19.6079 73.1766 20.2918 73.9356 19.828L78.4149 17.0917C78.5755 16.9937 78.7567 16.9448 78.9379 16.9451V0.97754Z" fill="#DEDDE2"/>
<path fill-rule="evenodd" clip-rule="evenodd" d="M101.938 0.97754C101.561 0.976926 101.184 1.18226 101.013 1.59356L98.9972 6.44058C98.8532 6.78683 98.5276 7.02342 98.1538 7.05339L92.9215 7.47292C92.0349 7.54401 91.6753 8.65045 92.3508 9.22914L96.3375 12.6446C96.6222 12.8886 96.7466 13.2713 96.6596 13.636L95.4416 18.7427C95.2353 19.6079 96.1766 20.2918 96.9356 19.828L101.415 17.0917C101.575 16.9937 101.757 16.9448 101.938 16.9451V0.97754Z" fill="#DEDDE2"/>
</svg>
