<svg width="112" height="20" viewBox="0 0 112 20" fill="none" xmlns="http://www.w3.org/2000/svg">
<path fill-rule="evenodd" clip-rule="evenodd" d="M9.93799 16.5496C10.1181 16.5499 10.2981 16.5988 10.4576 16.6962L14.9369 19.4325C15.696 19.8962 16.6373 19.2124 16.4309 18.3472L15.213 13.2405C15.126 12.8758 15.2503 12.4931 15.5351 12.2491L19.5217 8.83363C20.1972 8.25494 19.8377 7.1485 18.951 7.07741L13.7188 6.65789C13.345 6.62791 13.0193 6.39132 12.8753 6.04507L10.8596 1.19804C10.6891 0.787982 10.3137 0.582644 9.93799 0.582031V16.5496Z" fill="#E04537"/>
<path fill-rule="evenodd" clip-rule="evenodd" d="M9.93793 0.582033C9.56109 0.581418 9.18394 0.786756 9.0129 1.19805L6.99719 6.04507C6.8532 6.39133 6.52758 6.62792 6.15378 6.65789L0.921492 7.07742C0.0348769 7.14851 -0.324661 8.25494 0.350806 8.83363L4.33746 12.2491C4.62221 12.4931 4.74656 12.8758 4.65957 13.2405L3.44162 18.3472C3.23526 19.2124 4.17656 19.8962 4.93564 19.4325L9.41493 16.6962C9.57545 16.5982 9.75672 16.5493 9.93793 16.5496V0.582033Z" fill="#E04537"/>
<path fill-rule="evenodd" clip-rule="evenodd" d="M32.938 16.9676C33.1181 16.9679 33.2981 17.0167 33.4576 17.1142L37.9369 19.8505C38.696 20.3142 39.6373 19.6304 39.4309 18.7651L38.213 13.6585C38.126 13.2938 38.2503 12.911 38.5351 12.6671L42.5217 9.2516C43.1972 8.67291 42.8377 7.56647 41.951 7.49538L36.7188 7.07585C36.345 7.04588 36.0193 6.80929 35.8753 6.46304L33.8596 1.61601C33.6891 1.20595 33.3137 1.00061 32.938 1V16.9676Z" fill="#E04537"/>
<path fill-rule="evenodd" clip-rule="evenodd" d="M53 16.9676C53.1801 16.9679 53.3601 17.0167 53.5196 17.1142L57.9989 19.8505C58.758 20.3142 59.6993 19.6304 59.4929 18.7651L58.275 13.6585C58.188 13.2938 58.3123 12.911 58.5971 12.6671L62.5837 9.2516C63.2592 8.67291 62.8997 7.56647 62.0131 7.49538L56.7808 7.07585C56.407 7.04588 56.0814 6.80929 55.9374 6.46304L53.9217 1.61601C53.7511 1.20595 53.3757 1.00061 53 1V16.9676Z" fill="#DEDDE2"/>
<path fill-rule="evenodd" clip-rule="evenodd" d="M73 16.9676C73.1801 16.9679 73.3601 17.0167 73.5196 17.1142L77.9989 19.8505C78.758 20.3142 79.6993 19.6304 79.4929 18.7651L78.275 13.6585C78.188 13.2938 78.3123 12.911 78.5971 12.6671L82.5837 9.2516C83.2592 8.67291 82.8997 7.56647 82.0131 7.49538L76.7808 7.07585C76.407 7.04588 76.0814 6.80929 75.9374 6.46304L73.9217 1.61601C73.7511 1.20595 73.3757 1.00061 73 1V16.9676Z" fill="#DEDDE2"/>
<path fill-rule="evenodd" clip-rule="evenodd" d="M32.9379 1C32.5611 0.999386 32.1839 1.20472 32.0129 1.61602L29.9972 6.46304C29.8532 6.80929 29.5276 7.04588 29.1538 7.07586L23.9215 7.49538C23.0349 7.56647 22.6753 8.67291 23.3508 9.2516L27.3375 12.6671C27.6222 12.911 27.7466 13.2938 27.6596 13.6585L26.4416 18.7651C26.2353 19.6304 27.1766 20.3142 27.9356 19.8505L32.4149 17.1142C32.5755 17.0161 32.7567 16.9672 32.9379 16.9676V1Z" fill="#E04537"/>
<path fill-rule="evenodd" clip-rule="evenodd" d="M52.9379 1C52.5611 0.999386 52.1839 1.20472 52.0129 1.61602L49.9972 6.46304C49.8532 6.80929 49.5276 7.04588 49.1538 7.07586L43.9215 7.49538C43.0349 7.56647 42.6753 8.67291 43.3508 9.2516L47.3375 12.6671C47.6222 12.911 47.7466 13.2938 47.6596 13.6585L46.4416 18.7651C46.2353 19.6304 47.1766 20.3142 47.9356 19.8505L52.4149 17.1142C52.5755 17.0161 52.7567 16.9672 52.9379 16.9676V1Z" fill="#E04537"/>
<path fill-rule="evenodd" clip-rule="evenodd" d="M72.9379 1C72.5611 0.999386 72.1839 1.20472 72.0129 1.61602L69.9972 6.46304C69.8532 6.80929 69.5276 7.04588 69.1538 7.07586L63.9215 7.49538C63.0349 7.56647 62.6753 8.67291 63.3508 9.2516L67.3375 12.6671C67.6222 12.911 67.7466 13.2938 67.6596 13.6585L66.4416 18.7651C66.2353 19.6304 67.1766 20.3142 67.9356 19.8505L72.4149 17.1142C72.5755 17.0161 72.7567 16.9672 72.9379 16.9676V1Z" fill="#DEDDE2"/>
<path fill-rule="evenodd" clip-rule="evenodd" d="M101.938 16.5496C102.118 16.5499 102.298 16.5988 102.458 16.6962L106.937 19.4325C107.696 19.8962 108.637 19.2124 108.431 18.3472L107.213 13.2405C107.126 12.8758 107.25 12.4931 107.535 12.2491L111.522 8.83363C112.197 8.25494 111.838 7.1485 110.951 7.07741L105.719 6.65789C105.345 6.62791 105.019 6.39132 104.875 6.04507L102.86 1.19804C102.689 0.787982 102.314 0.582644 101.938 0.582031V16.5496Z" fill="#DEDDE2"/>
<path fill-rule="evenodd" clip-rule="evenodd" d="M101.938 0.582033C101.561 0.581418 101.184 0.786756 101.013 1.19805L98.9972 6.04507C98.8532 6.39133 98.5276 6.62792 98.1538 6.65789L92.9215 7.07742C92.0349 7.14851 91.6753 8.25494 92.3508 8.83363L96.3375 12.2491C96.6222 12.4931 96.7466 12.8758 96.6596 13.2405L95.4416 18.3472C95.2353 19.2124 96.1766 19.8962 96.9356 19.4325L101.415 16.6962C101.575 16.5982 101.757 16.5493 101.938 16.5496V0.582033Z" fill="#DEDDE2"/>
</svg>
