<svg width="112" height="20" viewBox="0 0 112 20" fill="none" xmlns="http://www.w3.org/2000/svg">
<path fill-rule="evenodd" clip-rule="evenodd" d="M9.93799 16.1541C10.1181 16.1544 10.2981 16.2033 10.4576 16.3007L14.9369 19.037C15.696 19.5007 16.6373 18.8169 16.4309 17.9517L15.213 12.845C15.126 12.4803 15.2503 12.0975 15.5351 11.8536L19.5217 8.43812C20.1972 7.85943 19.8377 6.753 18.951 6.68191L13.7188 6.26238C13.345 6.23241 13.0193 5.99582 12.8753 5.64956L10.8596 0.802537C10.6891 0.392474 10.3137 0.187136 9.93799 0.186523V16.1541Z" fill="#E04537"/>
<path fill-rule="evenodd" clip-rule="evenodd" d="M9.93793 0.186525C9.56109 0.18591 9.18394 0.391248 9.0129 0.802539L6.99719 5.64956C6.8532 5.99582 6.52758 6.23241 6.15378 6.26238L0.921492 6.68191C0.0348769 6.753 -0.324661 7.85943 0.350806 8.43812L4.33746 11.8536C4.62221 12.0975 4.74656 12.4803 4.65957 12.845L3.44162 17.9517C3.23526 18.8169 4.17656 19.5007 4.93564 19.037L9.41493 16.3007C9.57545 16.2027 9.75672 16.1538 9.93793 16.1541V0.186525Z" fill="#E04537"/>
<path fill-rule="evenodd" clip-rule="evenodd" d="M32.938 16.1541C33.1181 16.1544 33.2981 16.2033 33.4576 16.3007L37.9369 19.037C38.696 19.5007 39.6373 18.8169 39.4309 17.9517L38.213 12.845C38.126 12.4803 38.2503 12.0975 38.5351 11.8536L42.5217 8.43812C43.1972 7.85943 42.8377 6.753 41.951 6.68191L36.7188 6.26238C36.345 6.23241 36.0193 5.99582 35.8753 5.64956L33.8596 0.802537C33.6891 0.392474 33.3137 0.187136 32.938 0.186523V16.1541Z" fill="#E04537"/>
<path fill-rule="evenodd" clip-rule="evenodd" d="M55.938 16.1541C56.1181 16.1544 56.2981 16.2033 56.4576 16.3007L60.9369 19.037C61.696 19.5007 62.6373 18.8169 62.4309 17.9517L61.213 12.845C61.126 12.4803 61.2503 12.0975 61.5351 11.8536L65.5217 8.43812C66.1972 7.85943 65.8377 6.753 64.951 6.68191L59.7188 6.26238C59.345 6.23241 59.0193 5.99582 58.8753 5.64956L56.8596 0.802537C56.6891 0.392474 56.3137 0.187136 55.938 0.186523V16.1541Z" fill="#E04537"/>
<path fill-rule="evenodd" clip-rule="evenodd" d="M78.938 16.1541C79.1181 16.1544 79.2981 16.2033 79.4576 16.3007L83.9369 19.037C84.696 19.5007 85.6373 18.8169 85.4309 17.9517L84.213 12.845C84.126 12.4803 84.2503 12.0975 84.5351 11.8536L88.5217 8.43812C89.1972 7.85943 88.8377 6.753 87.951 6.68191L82.7188 6.26238C82.345 6.23241 82.0193 5.99582 81.8753 5.64956L79.8596 0.802537C79.6891 0.392474 79.3137 0.187136 78.938 0.186523V16.1541Z" fill="#DEDDE2"/>
<path fill-rule="evenodd" clip-rule="evenodd" d="M101.938 16.1541C102.118 16.1544 102.298 16.2033 102.458 16.3007L106.937 19.037C107.696 19.5007 108.637 18.8169 108.431 17.9517L107.213 12.845C107.126 12.4803 107.25 12.0975 107.535 11.8536L111.522 8.43812C112.197 7.85943 111.838 6.753 110.951 6.68191L105.719 6.26238C105.345 6.23241 105.019 5.99582 104.875 5.64956L102.86 0.802537C102.689 0.392474 102.314 0.187136 101.938 0.186523V16.1541Z" fill="#DEDDE2"/>
<path fill-rule="evenodd" clip-rule="evenodd" d="M32.9379 0.186525C32.5611 0.18591 32.1839 0.391248 32.0129 0.802539L29.9972 5.64956C29.8532 5.99582 29.5276 6.23241 29.1538 6.26238L23.9215 6.68191C23.0349 6.753 22.6753 7.85943 23.3508 8.43812L27.3375 11.8536C27.6222 12.0975 27.7466 12.4803 27.6596 12.845L26.4416 17.9517C26.2353 18.8169 27.1766 19.5007 27.9356 19.037L32.4149 16.3007C32.5755 16.2027 32.7567 16.1538 32.9379 16.1541V0.186525Z" fill="#E04537"/>
<path fill-rule="evenodd" clip-rule="evenodd" d="M55.9379 0.186525C55.5611 0.18591 55.1839 0.391248 55.0129 0.802539L52.9972 5.64956C52.8532 5.99582 52.5276 6.23241 52.1538 6.26238L46.9215 6.68191C46.0349 6.753 45.6753 7.85943 46.3508 8.43812L50.3375 11.8536C50.6222 12.0975 50.7466 12.4803 50.6596 12.845L49.4416 17.9517C49.2353 18.8169 50.1766 19.5007 50.9356 19.037L55.4149 16.3007C55.5755 16.2027 55.7567 16.1538 55.9379 16.1541V0.186525Z" fill="#E04537"/>
<path fill-rule="evenodd" clip-rule="evenodd" d="M78.9379 0.186525C78.5611 0.18591 78.1839 0.391248 78.0129 0.802539L75.9972 5.64956C75.8532 5.99582 75.5276 6.23241 75.1538 6.26238L69.9215 6.68191C69.0349 6.753 68.6753 7.85943 69.3508 8.43812L73.3375 11.8536C73.6222 12.0975 73.7466 12.4803 73.6596 12.845L72.4416 17.9517C72.2353 18.8169 73.1766 19.5007 73.9356 19.037L78.4149 16.3007C78.5755 16.2027 78.7567 16.1538 78.9379 16.1541V0.186525Z" fill="#DEDDE2"/>
<path fill-rule="evenodd" clip-rule="evenodd" d="M101.938 0.186525C101.561 0.18591 101.184 0.391248 101.013 0.802539L98.9972 5.64956C98.8532 5.99582 98.5276 6.23241 98.1538 6.26238L92.9215 6.68191C92.0349 6.753 91.6753 7.85943 92.3508 8.43812L96.3375 11.8536C96.6222 12.0975 96.7466 12.4803 96.6596 12.845L95.4416 17.9517C95.2353 18.8169 96.1766 19.5007 96.9356 19.037L101.415 16.3007C101.575 16.2027 101.757 16.1538 101.938 16.1541V0.186525Z" fill="#DEDDE2"/>
</svg>
