<svg width="112" height="20" viewBox="0 0 112 20" fill="none" xmlns="http://www.w3.org/2000/svg">
<path fill-rule="evenodd" clip-rule="evenodd" d="M9.93799 16.7586C10.1181 16.7589 10.2981 16.8077 10.4576 16.9052L14.9369 19.6415C15.696 20.1052 16.6373 19.4214 16.4309 18.5562L15.213 13.4495C15.126 13.0848 15.2503 12.702 15.5351 12.4581L19.5217 9.04261C20.1972 8.46392 19.8377 7.35749 18.951 7.2864L13.7188 6.86687C13.345 6.8369 13.0193 6.60031 12.8753 6.25405L10.8596 1.40703C10.6891 0.996966 10.3137 0.791629 9.93799 0.791016V16.7586Z" fill="#E04537"/>
<path fill-rule="evenodd" clip-rule="evenodd" d="M9.93793 0.791017C9.56109 0.790402 9.18394 0.99574 9.0129 1.40703L6.99719 6.25406C6.8532 6.60031 6.52758 6.8369 6.15378 6.86687L0.921492 7.2864C0.0348769 7.35749 -0.324661 8.46392 0.350806 9.04261L4.33746 12.4581C4.62221 12.702 4.74656 13.0848 4.65957 13.4495L3.44162 18.5562C3.23526 19.4214 4.17656 20.1052 4.93564 19.6415L9.41493 16.9052C9.57545 16.8071 9.75672 16.7583 9.93793 16.7586V0.791017Z" fill="#E04537"/>
<path fill-rule="evenodd" clip-rule="evenodd" d="M32.938 16.7586C33.1181 16.7589 33.2981 16.8077 33.4576 16.9052L37.9369 19.6415C38.696 20.1052 39.6373 19.4214 39.4309 18.5562L38.213 13.4495C38.126 13.0848 38.2503 12.702 38.5351 12.4581L42.5217 9.04261C43.1972 8.46392 42.8377 7.35749 41.951 7.2864L36.7188 6.86687C36.345 6.8369 36.0193 6.60031 35.8753 6.25405L33.8596 1.40703C33.6891 0.996966 33.3137 0.791629 32.938 0.791016V16.7586Z" fill="#E04537"/>
<path fill-rule="evenodd" clip-rule="evenodd" d="M55.938 16.7586C56.1181 16.7589 56.2981 16.8077 56.4576 16.9052L60.9369 19.6415C61.696 20.1052 62.6373 19.4214 62.4309 18.5562L61.213 13.4495C61.126 13.0848 61.2503 12.702 61.5351 12.4581L65.5217 9.04261C66.1972 8.46392 65.8377 7.35749 64.951 7.2864L59.7188 6.86687C59.345 6.8369 59.0193 6.60031 58.8753 6.25405L56.8596 1.40703C56.6891 0.996966 56.3137 0.791629 55.938 0.791016V16.7586Z" fill="#E04537"/>
<path fill-rule="evenodd" clip-rule="evenodd" d="M78.938 16.7586C79.1181 16.7589 79.2981 16.8077 79.4576 16.9052L83.9369 19.6415C84.696 20.1052 85.6373 19.4214 85.4309 18.5562L84.213 13.4495C84.126 13.0848 84.2503 12.702 84.5351 12.4581L88.5217 9.04261C89.1972 8.46392 88.8377 7.35749 87.951 7.2864L82.7188 6.86687C82.345 6.8369 82.0193 6.60031 81.8753 6.25405L79.8596 1.40703C79.6891 0.996966 79.3137 0.791629 78.938 0.791016V16.7586Z" fill="#DEDDE2"/>
<path fill-rule="evenodd" clip-rule="evenodd" d="M101.938 16.7586C102.118 16.7589 102.298 16.8077 102.458 16.9052L106.937 19.6415C107.696 20.1052 108.637 19.4214 108.431 18.5562L107.213 13.4495C107.126 13.0848 107.25 12.702 107.535 12.4581L111.522 9.04261C112.197 8.46392 111.838 7.35749 110.951 7.2864L105.719 6.86687C105.345 6.8369 105.019 6.60031 104.875 6.25405L102.86 1.40703C102.689 0.996966 102.314 0.791629 101.938 0.791016V16.7586Z" fill="#DEDDE2"/>
<path fill-rule="evenodd" clip-rule="evenodd" d="M32.9379 0.791017C32.5611 0.790402 32.1839 0.99574 32.0129 1.40703L29.9972 6.25406C29.8532 6.60031 29.5276 6.8369 29.1538 6.86687L23.9215 7.2864C23.0349 7.35749 22.6753 8.46392 23.3508 9.04261L27.3375 12.4581C27.6222 12.702 27.7466 13.0848 27.6596 13.4495L26.4416 18.5562C26.2353 19.4214 27.1766 20.1052 27.9356 19.6415L32.4149 16.9052C32.5755 16.8071 32.7567 16.7583 32.9379 16.7586V0.791017Z" fill="#E04537"/>
<path fill-rule="evenodd" clip-rule="evenodd" d="M55.9379 0.791017C55.5611 0.790402 55.1839 0.99574 55.0129 1.40703L52.9972 6.25406C52.8532 6.60031 52.5276 6.8369 52.1538 6.86687L46.9215 7.2864C46.0349 7.35749 45.6753 8.46392 46.3508 9.04261L50.3375 12.4581C50.6222 12.702 50.7466 13.0848 50.6596 13.4495L49.4416 18.5562C49.2353 19.4214 50.1766 20.1052 50.9356 19.6415L55.4149 16.9052C55.5755 16.8071 55.7567 16.7583 55.9379 16.7586V0.791017Z" fill="#E04537"/>
<path fill-rule="evenodd" clip-rule="evenodd" d="M78.9379 0.791017C78.5611 0.790402 78.1839 0.99574 78.0129 1.40703L75.9972 6.25406C75.8532 6.60031 75.5276 6.8369 75.1538 6.86687L69.9215 7.2864C69.0349 7.35749 68.6753 8.46392 69.3508 9.04261L73.3375 12.4581C73.6222 12.702 73.7466 13.0848 73.6596 13.4495L72.4416 18.5562C72.2353 19.4214 73.1766 20.1052 73.9356 19.6415L78.4149 16.9052C78.5755 16.8071 78.7567 16.7583 78.9379 16.7586V0.791017Z" fill="#E04537"/>
<path fill-rule="evenodd" clip-rule="evenodd" d="M101.938 0.791017C101.561 0.790402 101.184 0.99574 101.013 1.40703L98.9972 6.25406C98.8532 6.60031 98.5276 6.8369 98.1538 6.86687L92.9215 7.2864C92.0349 7.35749 91.6753 8.46392 92.3508 9.04261L96.3375 12.4581C96.6222 12.702 96.7466 13.0848 96.6596 13.4495L95.4416 18.5562C95.2353 19.4214 96.1766 20.1052 96.9356 19.6415L101.415 16.9052C101.575 16.8071 101.757 16.7583 101.938 16.7586V0.791017Z" fill="#DEDDE2"/>
</svg>
