<svg width="112" height="20" viewBox="0 0 112 20" fill="none" xmlns="http://www.w3.org/2000/svg">
<path fill-rule="evenodd" clip-rule="evenodd" d="M9.93799 16.3631C10.1181 16.3634 10.2981 16.4122 10.4576 16.5097L14.9369 19.246C15.696 19.7097 16.6373 19.0259 16.4309 18.1606L15.213 13.054C15.126 12.6893 15.2503 12.3065 15.5351 12.0626L19.5217 8.6471C20.1972 8.06841 19.8377 6.96198 18.951 6.89089L13.7188 6.47136C13.345 6.44139 13.0193 6.2048 12.8753 5.85855L10.8596 1.01152C10.6891 0.601459 10.3137 0.396121 9.93799 0.395508V16.3631Z" fill="#E04537"/>
<path fill-rule="evenodd" clip-rule="evenodd" d="M9.93793 0.395509C9.56109 0.394894 9.18394 0.600233 9.0129 1.01152L6.99719 5.85855C6.8532 6.2048 6.52758 6.44139 6.15378 6.47136L0.921492 6.89089C0.0348769 6.96198 -0.324661 8.06841 0.350806 8.64711L4.33746 12.0626C4.62221 12.3065 4.74656 12.6893 4.65957 13.054L3.44162 18.1606C3.23526 19.0259 4.17656 19.7097 4.93564 19.246L9.41493 16.5097C9.57545 16.4116 9.75672 16.3628 9.93793 16.3631V0.395509Z" fill="#E04537"/>
<path fill-rule="evenodd" clip-rule="evenodd" d="M32.938 16.3631C33.1181 16.3634 33.2981 16.4122 33.4576 16.5097L37.9369 19.246C38.696 19.7097 39.6373 19.0259 39.4309 18.1606L38.213 13.054C38.126 12.6893 38.2503 12.3065 38.5351 12.0626L42.5217 8.6471C43.1972 8.06841 42.8377 6.96198 41.951 6.89089L36.7188 6.47136C36.345 6.44139 36.0193 6.2048 35.8753 5.85855L33.8596 1.01152C33.6891 0.601459 33.3137 0.396121 32.938 0.395508V16.3631Z" fill="#E04537"/>
<path fill-rule="evenodd" clip-rule="evenodd" d="M55.938 16.3631C56.1181 16.3634 56.2981 16.4122 56.4576 16.5097L60.9369 19.246C61.696 19.7097 62.6373 19.0259 62.4309 18.1606L61.213 13.054C61.126 12.6893 61.2503 12.3065 61.5351 12.0626L65.5217 8.6471C66.1972 8.06841 65.8377 6.96198 64.951 6.89089L59.7188 6.47136C59.345 6.44139 59.0193 6.2048 58.8753 5.85855L56.8596 1.01152C56.6891 0.601459 56.3137 0.396121 55.938 0.395508V16.3631Z" fill="#E04537"/>
<path fill-rule="evenodd" clip-rule="evenodd" d="M78.938 16.3631C79.1181 16.3634 79.2981 16.4122 79.4576 16.5097L83.9369 19.246C84.696 19.7097 85.6373 19.0259 85.4309 18.1606L84.213 13.054C84.126 12.6893 84.2503 12.3065 84.5351 12.0626L88.5217 8.6471C89.1972 8.06841 88.8377 6.96198 87.951 6.89089L82.7188 6.47136C82.345 6.44139 82.0193 6.2048 81.8753 5.85855L79.8596 1.01152C79.6891 0.601459 79.3137 0.396121 78.938 0.395508V16.3631Z" fill="#E04537"/>
<path fill-rule="evenodd" clip-rule="evenodd" d="M101.938 16.3631C102.118 16.3634 102.298 16.4122 102.458 16.5097L106.937 19.246C107.696 19.7097 108.637 19.0259 108.431 18.1606L107.213 13.054C107.126 12.6893 107.25 12.3065 107.535 12.0626L111.522 8.6471C112.197 8.06841 111.838 6.96198 110.951 6.89089L105.719 6.47136C105.345 6.44139 105.019 6.2048 104.875 5.85855L102.86 1.01152C102.689 0.601459 102.314 0.396121 101.938 0.395508V16.3631Z" fill="#DEDDE2"/>
<path fill-rule="evenodd" clip-rule="evenodd" d="M32.9379 0.395509C32.5611 0.394894 32.1839 0.600233 32.0129 1.01152L29.9972 5.85855C29.8532 6.2048 29.5276 6.44139 29.1538 6.47136L23.9215 6.89089C23.0349 6.96198 22.6753 8.06841 23.3508 8.64711L27.3375 12.0626C27.6222 12.3065 27.7466 12.6893 27.6596 13.054L26.4416 18.1606C26.2353 19.0259 27.1766 19.7097 27.9356 19.246L32.4149 16.5097C32.5755 16.4116 32.7567 16.3628 32.9379 16.3631V0.395509Z" fill="#E04537"/>
<path fill-rule="evenodd" clip-rule="evenodd" d="M55.9379 0.395509C55.5611 0.394894 55.1839 0.600233 55.0129 1.01152L52.9972 5.85855C52.8532 6.2048 52.5276 6.44139 52.1538 6.47136L46.9215 6.89089C46.0349 6.96198 45.6753 8.06841 46.3508 8.64711L50.3375 12.0626C50.6222 12.3065 50.7466 12.6893 50.6596 13.054L49.4416 18.1606C49.2353 19.0259 50.1766 19.7097 50.9356 19.246L55.4149 16.5097C55.5755 16.4116 55.7567 16.3628 55.9379 16.3631V0.395509Z" fill="#E04537"/>
<path fill-rule="evenodd" clip-rule="evenodd" d="M78.9379 0.395509C78.5611 0.394894 78.1839 0.600233 78.0129 1.01152L75.9972 5.85855C75.8532 6.2048 75.5276 6.44139 75.1538 6.47136L69.9215 6.89089C69.0349 6.96198 68.6753 8.06841 69.3508 8.64711L73.3375 12.0626C73.6222 12.3065 73.7466 12.6893 73.6596 13.054L72.4416 18.1606C72.2353 19.0259 73.1766 19.7097 73.9356 19.246L78.4149 16.5097C78.5755 16.4116 78.7567 16.3628 78.9379 16.3631V0.395509Z" fill="#E04537"/>
<path fill-rule="evenodd" clip-rule="evenodd" d="M101.938 0.395509C101.561 0.394894 101.184 0.600233 101.013 1.01152L98.9972 5.85855C98.8532 6.2048 98.5276 6.44139 98.1538 6.47136L92.9215 6.89089C92.0349 6.96198 91.6753 8.06841 92.3508 8.64711L96.3375 12.0626C96.6222 12.3065 96.7466 12.6893 96.6596 13.054L95.4416 18.1606C95.2353 19.0259 96.1766 19.7097 96.9356 19.246L101.415 16.5097C101.575 16.4116 101.757 16.3628 101.938 16.3631V0.395509Z" fill="#DEDDE2"/>
</svg>
