<svg width="112" height="19" viewBox="0 0 112 19" fill="none" xmlns="http://www.w3.org/2000/svg">
<path fill-rule="evenodd" clip-rule="evenodd" d="M9.93799 15.9676C10.1181 15.9679 10.2981 16.0167 10.4576 16.1142L14.9369 18.8505C15.696 19.3142 16.6373 18.6304 16.4309 17.7651L15.213 12.6585C15.126 12.2938 15.2503 11.911 15.5351 11.6671L19.5217 8.2516C20.1972 7.67291 19.8377 6.56647 18.951 6.49538L13.7188 6.07585C13.345 6.04588 13.0193 5.80929 12.8753 5.46304L10.8596 0.616014C10.6891 0.205951 10.3137 0.000612994 9.93799 0V15.9676Z" fill="#E04537"/>
<path fill-rule="evenodd" clip-rule="evenodd" d="M9.93793 1.37698e-06C9.56109 -0.000613541 9.18394 0.204725 9.0129 0.616016L6.99719 5.46304C6.8532 5.80929 6.52758 6.04588 6.15378 6.07586L0.921492 6.49538C0.0348769 6.56647 -0.324661 7.67291 0.350806 8.2516L4.33746 11.6671C4.62221 11.911 4.74656 12.2938 4.65957 12.6585L3.44162 17.7651C3.23526 18.6304 4.17656 19.3142 4.93564 18.8505L9.41493 16.1142C9.57545 16.0161 9.75672 15.9672 9.93793 15.9676V1.37698e-06Z" fill="#E04537"/>
<path fill-rule="evenodd" clip-rule="evenodd" d="M32.938 15.9676C33.1181 15.9679 33.2981 16.0167 33.4576 16.1142L37.9369 18.8505C38.696 19.3142 39.6373 18.6304 39.4309 17.7651L38.213 12.6585C38.126 12.2938 38.2503 11.911 38.5351 11.6671L42.5217 8.2516C43.1972 7.67291 42.8377 6.56647 41.951 6.49538L36.7188 6.07585C36.345 6.04588 36.0193 5.80929 35.8753 5.46304L33.8596 0.616014C33.6891 0.205951 33.3137 0.000612994 32.938 0V15.9676Z" fill="#E04537"/>
<path fill-rule="evenodd" clip-rule="evenodd" d="M55.938 15.9676C56.1181 15.9679 56.2981 16.0167 56.4576 16.1142L60.9369 18.8505C61.696 19.3142 62.6373 18.6304 62.4309 17.7651L61.213 12.6585C61.126 12.2938 61.2503 11.911 61.5351 11.6671L65.5217 8.2516C66.1972 7.67291 65.8377 6.56647 64.951 6.49538L59.7188 6.07585C59.345 6.04588 59.0193 5.80929 58.8753 5.46304L56.8596 0.616014C56.6891 0.205951 56.3137 0.000612994 55.938 0V15.9676Z" fill="#E04537"/>
<path fill-rule="evenodd" clip-rule="evenodd" d="M78.938 15.9676C79.1181 15.9679 79.2981 16.0167 79.4576 16.1142L83.9369 18.8505C84.696 19.3142 85.6373 18.6304 85.4309 17.7651L84.213 12.6585C84.126 12.2938 84.2503 11.911 84.5351 11.6671L88.5217 8.2516C89.1972 7.67291 88.8377 6.56647 87.951 6.49538L82.7188 6.07585C82.345 6.04588 82.0193 5.80929 81.8753 5.46304L79.8596 0.616014C79.6891 0.205951 79.3137 0.000612994 78.938 0V15.9676Z" fill="#E04537"/>
<path fill-rule="evenodd" clip-rule="evenodd" d="M101.938 15.9676C102.118 15.9679 102.298 16.0167 102.458 16.1142L106.937 18.8505C107.696 19.3142 108.637 18.6304 108.431 17.7651L107.213 12.6585C107.126 12.2938 107.25 11.911 107.535 11.6671L111.522 8.2516C112.197 7.67291 111.838 6.56647 110.951 6.49538L105.719 6.07585C105.345 6.04588 105.019 5.80929 104.875 5.46304L102.86 0.616014C102.689 0.205951 102.314 0.000612994 101.938 0V15.9676Z" fill="#DEDDE2"/>
<path fill-rule="evenodd" clip-rule="evenodd" d="M32.9379 1.37698e-06C32.5611 -0.000613541 32.1839 0.204725 32.0129 0.616016L29.9972 5.46304C29.8532 5.80929 29.5276 6.04588 29.1538 6.07586L23.9215 6.49538C23.0349 6.56647 22.6753 7.67291 23.3508 8.2516L27.3375 11.6671C27.6222 11.911 27.7466 12.2938 27.6596 12.6585L26.4416 17.7651C26.2353 18.6304 27.1766 19.3142 27.9356 18.8505L32.4149 16.1142C32.5755 16.0161 32.7567 15.9672 32.9379 15.9676V1.37698e-06Z" fill="#E04537"/>
<path fill-rule="evenodd" clip-rule="evenodd" d="M55.9379 1.37698e-06C55.5611 -0.000613541 55.1839 0.204725 55.0129 0.616016L52.9972 5.46304C52.8532 5.80929 52.5276 6.04588 52.1538 6.07586L46.9215 6.49538C46.0349 6.56647 45.6753 7.67291 46.3508 8.2516L50.3375 11.6671C50.6222 11.911 50.7466 12.2938 50.6596 12.6585L49.4416 17.7651C49.2353 18.6304 50.1766 19.3142 50.9356 18.8505L55.4149 16.1142C55.5755 16.0161 55.7567 15.9672 55.9379 15.9676V1.37698e-06Z" fill="#E04537"/>
<path fill-rule="evenodd" clip-rule="evenodd" d="M78.9379 1.37698e-06C78.5611 -0.000613541 78.1839 0.204725 78.0129 0.616016L75.9972 5.46304C75.8532 5.80929 75.5276 6.04588 75.1538 6.07586L69.9215 6.49538C69.0349 6.56647 68.6753 7.67291 69.3508 8.2516L73.3375 11.6671C73.6222 11.911 73.7466 12.2938 73.6596 12.6585L72.4416 17.7651C72.2353 18.6304 73.1766 19.3142 73.9356 18.8505L78.4149 16.1142C78.5755 16.0161 78.7567 15.9672 78.9379 15.9676V1.37698e-06Z" fill="#E04537"/>
<path fill-rule="evenodd" clip-rule="evenodd" d="M101.938 1.37698e-06C101.561 -0.000613541 101.184 0.204725 101.013 0.616016L98.9972 5.46304C98.8532 5.80929 98.5276 6.04588 98.1538 6.07586L92.9215 6.49538C92.0349 6.56647 91.6753 7.67291 92.3508 8.2516L96.3375 11.6671C96.6222 11.911 96.7466 12.2938 96.6596 12.6585L95.4416 17.7651C95.2353 18.6304 96.1766 19.3142 96.9356 18.8505L101.415 16.1142C101.575 16.0161 101.757 15.9672 101.938 15.9676V1.37698e-06Z" fill="#E04537"/>
</svg>
